<?xml version="1.0" encoding="UTF-8" standalone="no" ?>
<!DOCTYPE svg PUBLIC "-//W3C//DTD SVG 1.1//EN" "http://www.w3.org/Graphics/SVG/1.1/DTD/svg11.dtd">
<svg xmlns="http://www.w3.org/2000/svg" xmlns:xlink="http://www.w3.org/1999/xlink" version="1.1" width="1280" height="1024" viewBox="0 0 1280 1024" xml:space="preserve">
<desc>Created with Fabric.js 5.3.0</desc>
<defs>
</defs>
<g transform="matrix(1 0 0 1 640 512)" id="background-logo"  >
<rect style="stroke: none; stroke-width: 0; stroke-dasharray: none; stroke-linecap: butt; stroke-dashoffset: 0; stroke-linejoin: miter; stroke-miterlimit: 4; fill: rgb(255,255,255); fill-opacity: 0; fill-rule: nonzero; opacity: 1;"  paint-order="stroke"  x="-640" y="-512" rx="0" ry="0" width="1280" height="1024" />
</g>
<g transform="matrix(1.9211538461538462 0 0 1.9211538461538462 591.0283441116146 406.7256924163434)" id="logo-logo"  >
<g style=""  paint-order="stroke"   >
		<g transform="matrix(0.879606733102028 0 0 -0.8796067331020282 0 0)"  >
<linearGradient id="SVGID_130809_125490" gradientUnits="userSpaceOnUse" gradientTransform="matrix(1 0 0 1 -356.46999999999997 -36.742000000000004)"  x1="0" y1="0" x2="0" y2="112">
<stop offset="0%" style="stop-color:rgb(108,162,229);stop-opacity: 1"/>
<stop offset="100%" style="stop-color:rgb(37,116,212);stop-opacity: 1"/>
</linearGradient>
<path style="stroke: none; stroke-width: 1; stroke-dasharray: none; stroke-linecap: butt; stroke-dashoffset: 0; stroke-linejoin: miter; stroke-miterlimit: 4; fill: url(#SVGID_130809_125490); fill-rule: nonzero; opacity: 1;"  paint-order="stroke"  transform=" translate(163.9885, -19.32798266538797)" d="M 0 0 L 24.144 0 C 25.965 2.577 27.509999999999998 5.004 28.493 7.005 L -43.882000000000005 7.005 C -45.816 7.005 -47.38400000000001 8.573 -47.38400000000001 10.508 C -47.38400000000001 12.441999999999998 -45.81600000000001 14.009999999999998 -43.882000000000005 14.009999999999998 L 27.581999999999994 14.009999999999998 C 27.693999999999992 15.704999999999998 27.704999999999995 18.354999999999997 27.059999999999995 21.014999999999997 L -27.278000000000006 21.014999999999997 C -29.212000000000007 21.014999999999997 -30.780000000000005 22.583 -30.780000000000005 24.516999999999996 C -30.780000000000005 26.451999999999995 -29.212000000000003 28.019999999999996 -27.278000000000006 28.019999999999996 L 22.622999999999998 28.019999999999996 C 22.320999999999998 28.226999999999997 22.009999999999998 28.423999999999996 21.673 28.601999999999997 C -0.7420000000000009 40.422999999999995 -67.011 50.726 -67.011 50.726 C -67.011 50.726 -101.701 81.279 -178.644 74.38499999999999 C -178.644 74.38499999999999 -209.183 72.66699999999999 -238.833 51.614999999999995 C -238.833 51.614999999999995 -267.327 47.894999999999996 -284.371 42.028999999999996 L -336.364 42.028999999999996 C -338.298 42.028999999999996 -339.866 40.461 -339.866 38.526999999999994 C -339.866 36.592999999999996 -338.298 35.023999999999994 -336.364 35.023999999999994 L -285.68399999999997 35.023999999999994 L -254.75199999999998 35.023999999999994 L -231.32799999999997 35.023999999999994 C -229.39399999999998 35.023999999999994 -227.82599999999996 33.455999999999996 -227.82599999999996 31.521999999999995 C -227.82599999999996 29.587999999999994 -229.39399999999998 28.019999999999996 -231.32799999999997 28.019999999999996 L -271.35499999999996 28.019999999999996 L -285.561 28.019999999999996 L -352.96799999999996 28.019999999999996 C -354.902 28.019999999999996 -356.46999999999997 26.450999999999997 -356.46999999999997 24.516999999999996 C -356.46999999999997 22.582999999999995 -354.902 21.014999999999997 -352.96799999999996 21.014999999999997 L -284.82199999999995 21.014999999999997 L -271.35499999999996 21.014999999999997 L -247.93199999999996 21.014999999999997 C -245.99799999999996 21.014999999999997 -244.42999999999995 19.446999999999996 -244.42999999999995 17.512999999999998 C -244.42999999999995 15.577999999999998 -245.99799999999996 14.009999999999998 -247.93199999999996 14.009999999999998 L -282.787 14.009999999999998 L -309.08599999999996 14.009999999999998 C -311.02 14.009999999999998 -312.58799999999997 12.441999999999998 -312.58799999999997 10.508 C -312.58799999999997 8.572999999999999 -311.02 7.004999999999999 -309.08599999999996 7.004999999999999 L -282.203 7.004999999999999 L -227.474 7.004999999999999 L -204.04999999999998 7.004999999999999 C -202.11499999999998 7.004999999999999 -200.54699999999997 5.436999999999999 -200.54699999999997 3.5029999999999992 C -200.54699999999997 1.5679999999999992 -202.11499999999998 -8.881784197001252e-16 -204.04999999999995 -8.881784197001252e-16 L -259.63499999999993 -8.881784197001252e-16 L -259.64399999999995 -8.881784197001252e-16 L -341.256 -8.881784197001252e-16 C -343.19 -8.881784197001252e-16 -344.758 -1.5670000000000008 -344.758 -3.5020000000000007 C -344.758 -5.436000000000001 -343.19 -7.005000000000001 -341.256 -7.005000000000001 L -278.226 -7.005000000000001 L -259.644 -7.005000000000001 L -236.22 -7.005000000000001 C -234.286 -7.005000000000001 -232.718 -8.572000000000001 -232.718 -10.507000000000001 C -232.718 -12.441 -234.286 -14.010000000000002 -236.22 -14.010000000000002 L -274.339 -14.010000000000002 C -272.528 -17.764000000000003 -271.448 -20.731 -271.448 -20.731 L -253.141 -20.731 C -247.908 -30.272000000000002 -237.771 -36.742000000000004 -226.12099999999998 -36.742000000000004 C -214.47099999999998 -36.742000000000004 -204.33399999999997 -30.272000000000006 -199.10099999999997 -20.731000000000005 L -62.11899999999997 -20.731000000000005 C -56.88699999999997 -30.272000000000006 -46.748999999999974 -36.742000000000004 -35.09999999999997 -36.742000000000004 C -23.564999999999973 -36.742000000000004 -13.517999999999972 -30.398000000000003 -8.239999999999974 -21.015000000000004 L -32.16999999999997 -21.015000000000004 C -34.10399999999997 -21.015000000000004 -35.671999999999976 -19.446000000000005 -35.671999999999976 -17.512000000000004 C -35.671999999999976 -15.577000000000004 -34.10399999999998 -14.010000000000005 -32.16999999999997 -14.010000000000005 L 13.112000000000023 -14.010000000000005 C 14.880000000000024 -11.920000000000005 16.879000000000023 -9.507000000000005 18.862000000000023 -7.005000000000005 L 0 -7.005 C -1.934 -7.005 -3.502 -5.436999999999999 -3.502 -3.502 C -3.502 -1.567 -1.934 0 0 0" stroke-linecap="round" />
</g>
</g>
</g>
<g transform="matrix(1.9211538461538462 0 0 1.9211538461538462 643.2217749999999 597.3223903265342)" id="text-logo"  >
<g style=""  paint-order="stroke"   >
		<g transform="matrix(1 0 0 1 0 0)" id="text-logo-path-0"  >
<filter id="SVGID_125488" y="-20%" height="140%" x="-20.907533663826843%" width="141.81506732765368%" >
	<feGaussianBlur in="SourceAlpha" stdDeviation="0"></feGaussianBlur>
	<feOffset dx="-4.244897959183673" dy="0" result="oBlur" ></feOffset>
	<feFlood flood-color="rgb(91,126,233)" flood-opacity="1"/>
	<feComposite in2="oBlur" operator="in" />
	<feMerge>
		<feMergeNode></feMergeNode>
		<feMergeNode in="SourceGraphic"></feMergeNode>
	</feMerge>
</filter>
<path style="stroke: rgb(255,255,255); stroke-width: 0; stroke-dasharray: none; stroke-linecap: butt; stroke-dashoffset: 0; stroke-linejoin: miter; stroke-miterlimit: 4; fill: rgb(95,154,227); fill-rule: nonzero; opacity: 1;filter: url(#SVGID_125488);"  paint-order="stroke"  transform=" translate(-235.48000000000002, 18.2)" d="M 1.61 0 L 12.74 0 L 15.5 -15.76 L 20.96 -15.76 L 28.6 0 L 39.73 0 L 32.03 -15.76 L 39.83 -15.76 L 42.48 -31.1 L 37.18 -36.4 L 5.41 -36.4 L 7.49 -33.28 Z M 16.59 -21.79 L 18.04 -30.32 L 31.25 -30.32 L 29.74 -21.79 Z M 47.27 -5.3 L 52.57 0 L 67.65 0 L 91.78 -36.4 L 80.18 -36.4 L 57.98 -2.86 L 63.86 -36.4 L 50.13 -36.4 L 52.21 -33.28 Z M 102.86 0 L 113.93 0 L 120.38 -36.4 L 106.65 -36.4 L 108.73 -33.28 Z M 120.54 0 L 131.61 0 L 136.29 -26.47 L 145.86 0 L 158.5 0 L 164.94 -36.4 L 153.82 -36.4 L 149.19 -9.98 L 139.67 -36.4 L 124.33 -36.4 L 126.41 -33.28 Z M 167.86 -15.76 L 194.79 -15.76 L 193.08 -6.08 L 166.19 -6.08 L 165.1 0 L 203.06 0 L 205.97 -16.48 L 200.67 -21.79 L 180.02 -21.79 L 181.53 -30.32 L 192.66 -30.32 L 191.98 -26.42 L 203.11 -26.42 L 203.89 -31.1 L 198.59 -36.4 L 168.9 -36.4 L 170.98 -33.28 Z M 210.6 -5.3 L 215.9 0 L 242.22 0 L 248.72 -6.14 L 254.07 -36.4 L 243 -36.4 L 237.64 -6.08 L 221.88 -6.08 L 227.19 -36.4 L 213.46 -36.4 L 215.54 -33.28 Z M 254.23 0 L 265.36 0 L 268.11 -15.76 L 273.57 -15.76 L 281.22 0 L 292.34 0 L 284.65 -15.76 L 292.45 -15.76 L 295.1 -31.1 L 289.8 -36.4 L 258.02 -36.4 L 260.1 -33.28 Z M 269.2 -21.79 L 270.66 -30.32 L 283.87 -30.32 L 282.36 -21.79 Z M 298.95 0 L 310.08 0 L 312.88 -15.76 L 328.64 -15.76 L 325.83 0 L 336.91 0 L 342.42 -31.1 L 337.12 -36.4 L 302.74 -36.4 L 304.82 -33.28 Z M 313.92 -21.79 L 315.43 -30.37 L 331.19 -30.37 L 329.68 -21.79 Z M 343.51 0 L 354.59 0 L 359.27 -26.47 L 368.84 0 L 381.47 0 L 387.92 -36.4 L 376.79 -36.4 L 372.16 -9.98 L 362.65 -36.4 L 347.31 -36.4 L 349.39 -33.28 Z M 389.01 -5.3 L 394.32 0 L 426.04 0 L 428.17 -12.12 L 417.09 -12.12 L 416.05 -6.08 L 400.3 -6.08 L 404.51 -30.32 L 420.32 -30.32 L 419.38 -25.22 L 430.51 -25.22 L 431.55 -31.1 L 426.24 -36.4 L 391.87 -36.4 L 393.95 -33.28 Z M 432.64 0 L 462.9 0 L 464 -6.03 L 444.81 -6.03 L 446.52 -15.76 L 463.06 -15.76 L 464.15 -21.79 L 447.62 -21.79 L 449.12 -30.37 L 468.26 -30.37 L 469.35 -36.4 L 436.44 -36.4 L 438.52 -33.28 Z" stroke-linecap="round" />
</g>
</g>
</g>
<g transform="matrix(1.9211538461538462 0 0 1.9211538461538462 640.1296778846154 678.2393154803802)" id="tagline-6720af0a-8461-4df9-bf52-43b3fd11eeb5-logo"  >
<g style=""  paint-order="stroke"   >
		<g transform="matrix(1 0 0 1 0 0)" id="tagline-6720af0a-8461-4df9-bf52-43b3fd11eeb5-logo-path-0"  >
<path style="stroke: none; stroke-width: 0; stroke-dasharray: none; stroke-linecap: butt; stroke-dashoffset: 0; stroke-linejoin: miter; stroke-miterlimit: 4; fill: rgb(43,121,218); fill-rule: nonzero; opacity: 1;"  paint-order="stroke"  transform=" translate(-138.06000000000003, 10.5)" d="M -0.54 0 L 3.36 0 L 4.68 -7.5 L 9.21 -7.5 C 9.51 -7.5 9.75 -7.2 9.69 -6.9 L 8.46 0 L 12.36 0 L 13.59 -6.93 C 13.77 -7.95 13.32 -8.88 12.57 -9.3 C 13.53 -9.75 14.25 -10.65 14.43 -11.67 L 15.6 -18.33 C 15.87 -19.83 14.88 -21 13.38 -21 L 3.18 -21 Z M 9.78 -10.8 L 5.28 -10.8 L 6.51 -17.7 L 10.98 -17.7 C 11.28 -17.7 11.52 -17.4 11.49 -17.1 L 10.47 -11.4 C 10.44 -11.1 10.08 -10.8 9.78 -10.8 Z M 32.34 0 L 39.84 0 C 41.34 0 42.75 -1.17 43.02 -2.67 L 45.78 -18.33 C 46.05 -19.83 45.06 -21 43.56 -21 L 36.06 -21 C 34.56 -21 33.15 -19.83 32.88 -18.33 L 30.12 -2.67 C 29.85 -1.17 30.84 0 32.34 0 Z M 38.61 -3.3 L 34.11 -3.3 L 36.69 -17.7 L 41.19 -17.7 C 41.49 -17.7 41.73 -17.4 41.67 -17.1 L 39.33 -3.9 C 39.27 -3.6 38.91 -3.3 38.61 -3.3 Z M 68.82 0 L 72.72 0 L 76.44 -21 L 66.24 -21 C 64.74 -21 63.33 -19.83 63.06 -18.33 L 59.82 0 L 63.72 0 L 64.77 -5.85 L 69.87 -5.85 Z M 65.34 -9.15 L 66.87 -17.7 L 71.97 -17.7 L 70.44 -9.15 Z M 90 0 L 100.2 0 C 101.7 0 103.11 -1.17 103.38 -2.67 L 106.14 -18.33 C 106.41 -19.83 105.42 -21 103.92 -21 L 93.72 -21 Z M 98.97 -3.3 L 94.47 -3.3 L 97.05 -17.7 L 101.55 -17.7 C 101.85 -17.7 102.09 -17.4 102.03 -17.1 L 99.69 -3.9 C 99.63 -3.6 99.27 -3.3 98.97 -3.3 Z M 140.82 0 L 144.72 0 L 146.04 -7.5 L 150.57 -7.5 C 150.87 -7.5 151.11 -7.2 151.05 -6.9 L 149.82 0 L 153.72 0 L 154.95 -6.93 C 155.13 -7.95 154.68 -8.88 153.93 -9.3 C 154.89 -9.75 155.61 -10.65 155.79 -11.67 L 156.96 -18.33 C 157.23 -19.83 156.24 -21 154.74 -21 L 144.54 -21 Z M 151.14 -10.8 L 146.64 -10.8 L 147.87 -17.7 L 152.34 -17.7 C 152.64 -17.7 152.88 -17.4 152.85 -17.1 L 151.83 -11.4 C 151.8 -11.1 151.44 -10.8 151.14 -10.8 Z M 173.7 0 L 182.4 0 L 183 -3.3 L 175.47 -3.3 L 176.46 -8.85 L 182.46 -8.85 L 183.06 -12.15 L 177.06 -12.15 L 178.05 -17.7 L 185.52 -17.7 L 186.12 -21 L 177.42 -21 C 175.92 -21 174.51 -19.83 174.24 -18.33 L 171.48 -2.67 C 171.21 -1.17 172.2 0 173.7 0 Z M 208.68 0 L 212.58 0 L 216.3 -21 L 206.1 -21 C 204.6 -21 203.19 -19.83 202.92 -18.33 L 199.68 0 L 203.58 0 L 204.63 -5.85 L 209.73 -5.85 Z M 205.2 -9.15 L 206.73 -17.7 L 211.83 -17.7 L 210.3 -9.15 Z M 229.86 0 L 240.06 0 C 241.56 0 242.97 -1.17 243.24 -2.67 L 246 -18.33 C 246.27 -19.83 245.28 -21 243.78 -21 L 233.58 -21 Z M 238.83 -3.3 L 234.33 -3.3 L 236.91 -17.7 L 241.41 -17.7 C 241.71 -17.7 241.95 -17.4 241.89 -17.1 L 239.55 -3.9 C 239.49 -3.6 239.13 -3.3 238.83 -3.3 Z M 266.1 -8.76 L 264.54 0 L 268.44 0 L 270 -8.76 L 276.66 -21 L 272.76 -21 L 268.98 -14.07 L 267.66 -21 L 263.76 -21 Z" stroke-linecap="round" />
</g>
</g>
</g>
</svg>